<?xml version="1.0" encoding="UTF-8"?>
<svg id="Layer_1" data-name="Layer 1" xmlns="http://www.w3.org/2000/svg" viewBox="0 0 128 128">
  <defs>
    <style>
      .cls-1 {
        fill: #9e3838;
        fill-rule: evenodd;
      }
    </style>
  </defs>
  <path class="cls-1" d="M63.16,84.21l-3.58-11.21h-12.55l-3.4,11.21h-7.45l12.67-39.54h9.21l12.85,39.54h-7.74ZM51.26,57.81l-3.05,9.74h10.15l-3.11-9.74c-.62-1.95-1.16-4.09-1.65-6.04-.12-.46-.23-.91-.34-1.35h-.12c-.2.78-.4,1.62-.61,2.48-.39,1.65-.81,3.37-1.27,4.91Z"/>
  <path class="cls-1" d="M97.49,68.9c0,1.35-.12,2.41-.23,3.05h-19.13c.18,5.16,4.22,7.39,8.8,7.39,3.34,0,5.75-.47,7.92-1.29l1.06,4.99c-2.46,1-5.87,1.82-9.97,1.82-9.27,0-14.73-5.75-14.73-14.49,0-7.92,4.81-15.37,13.96-15.37s12.32,7.63,12.32,13.9ZM84.76,59.92c-4.46,0-6.34,4.05-6.63,6.98h12.55c.06-2.64-1.11-6.98-5.93-6.98Z"/>
  <path class="cls-1" d="M95.22,16.65c-18.49-2.07-37.6-2.07-56.09,0-10.73,1.2-19.39,9.65-20.66,20.44-2.21,18.9-2.21,38,0,56.9,1.26,10.79,9.92,19.24,20.66,20.44,18.49,2.07,37.6,2.07,56.09,0,10.73-1.2,19.39-9.65,20.66-20.44,2.21-18.9,2.21-38,0-56.9-1.26-10.79-9.92-19.24-20.66-20.44ZM40.02,24.6c17.9-2,36.41-2,54.31,0,7.09.79,12.78,6.39,13.6,13.42,2.14,18.29,2.14,36.76,0,55.04-.82,7.03-6.5,12.63-13.6,13.42-17.9,2-36.41,2-54.31,0-7.09-.79-12.78-6.39-13.6-13.42-2.14-18.29-2.14-36.76,0-55.04.82-7.03,6.5-12.63,13.6-13.42Z"/>
</svg>