<?xml version="1.0" encoding="UTF-8"?>
<svg id="Layer_1" data-name="Layer 1" xmlns="http://www.w3.org/2000/svg" viewBox="0 0 128 124.8">
  <defs>
    <style>
      .cls-1 {
        fill: #9e3838;
      }
    </style>
  </defs>
  <path class="cls-1" d="M98.28,18.34h-62.22c-9.43,0-17.06,7.63-17.06,17.06v59.81c0,9.43,7.63,17.06,17.06,17.06h62.22c9.43,0,17.06-7.63,17.06-17.06v-59.81c0-9.43-7.63-17.06-17.06-17.06ZM69.18,84.57h-8.39c-.28.04-.56-.16-.64-.44l-3.29-9.59h-14.93l-3.05,9.47c-.08.36-.4.6-.76.56h-7.55c-.44,0-.56-.24-.44-.72l12.93-37.09c.12-.4.24-.84.4-1.32.2-.84.32-1.69.32-2.57-.04-.2.12-.4.32-.44h10.4c.28,0,.48.12.52.32l14.57,41.19c.12.44,0,.64-.4.64h0ZM100.29,84.61h-6.91c-.32.04-.64-.16-.76-.44-.08-.32-.16-.69-.24-1-.08-.28-.08-.56-.08-.84-1.28,1.16-2.85,2.01-4.54,2.48-1.45.41-2.97.6-4.46.6s-2.97-.2-4.38-.68c-1.28-.44-2.48-1.2-3.41-2.21-1.04-1.12-1.81-2.45-2.25-3.89-.56-1.85-.84-3.77-.8-5.7v-19.91c-.04-.24.12-.48.4-.52h7.78c.24-.04.49.12.53.4v18.99c0,1.76.4,3.17,1.16,4.17.77,1,2.33,1.53,4.14,1.53.92,0,1.84-.16,2.73-.49.92-.32,1.76-.76,2.53-1.32v-22.84c0-.28.2-.44.56-.44h7.67c.2-.04.44.12.44.32v24.73c0,1.09,0,2.05.04,2.89.04.85.08,1.57.12,2.21.08.64.12,1,.16,1.44.05.36-.11.53-.43.53h0ZM52.44,60.2c-.4-1.24-.76-2.45-1.16-3.69s-.76-2.41-1.08-3.57c-.32-1.12-.6-2.17-.88-3.13h-.08c-.36,1.73-.8,3.45-1.36,5.18-.6,1.93-1.2,3.93-1.85,5.94-.52,2.05-1.16,3.93-1.77,5.62h10.2c-.24-.84-.56-1.85-.92-2.89-.36-1.08-.72-2.25-1.08-3.45Z"/>
</svg>