<?xml version="1.0" encoding="UTF-8"?>
<svg id="Layer_1" data-name="Layer 1" xmlns="http://www.w3.org/2000/svg" xmlns:xlink="http://www.w3.org/1999/xlink" viewBox="0 0 128 128">
  <defs>
    <style>
      .cls-1 {
        fill: none;
      }

      .cls-2 {
        fill-rule: evenodd;
      }

      .cls-3 {
        clip-path: url(#clippath);
      }
    </style>
    <clipPath id="clippath">
      <rect class="cls-1" x="21.75" y="23.11" width="84.5" height="84.5"/>
    </clipPath>
  </defs>
  <g class="cls-3">
    <path class="cls-2" d="M51.38,23.11c-8.61,0-15.54,7.23-15.54,16.08,0,5.38,2.56,10.16,6.5,13.08-3.94,2.92-6.5,7.7-6.5,13.08s2.56,10.16,6.5,13.08c-3.94,2.92-6.5,7.7-6.5,13.08,0,8.85,6.93,16.08,15.54,16.08s15.54-7.23,15.54-16.08v-13.6c2.65,2.2,6.03,3.52,9.7,3.52,8.61,0,15.54-7.23,15.54-16.08,0-5.38-2.56-10.16-6.5-13.08,3.94-2.92,6.5-7.7,6.5-13.08,0-8.85-6.93-16.08-15.54-16.08h-25.24ZM41.68,39.19c0-5.6,4.37-10.09,9.7-10.09h9.7v20.17h-9.7c-5.33,0-9.7-4.49-9.7-10.09ZM76.62,49.28h-9.7v-20.17h9.7c5.33,0,9.7,4.49,9.7,10.09s-4.37,10.09-9.7,10.09ZM41.68,65.36c0-5.6,4.37-10.09,9.7-10.09h9.7v20.17h-9.7c-5.33,0-9.7-4.49-9.7-10.09ZM66.92,65.36c0-5.6,4.37-10.09,9.7-10.09s9.7,4.49,9.7,10.09-4.37,10.09-9.7,10.09-9.7-4.49-9.7-10.09ZM41.68,91.53c0-5.6,4.37-10.09,9.7-10.09h9.7v10.09c0,5.6-4.37,10.09-9.7,10.09s-9.7-4.49-9.7-10.09Z"/>
  </g>
</svg>