<?xml version="1.0" encoding="UTF-8"?>
<svg id="Layer_1" data-name="Layer 1" xmlns="http://www.w3.org/2000/svg" viewBox="0 0 128 128">
  <defs>
    <style>
      .cls-1 {
        fill: none;
        stroke: #9e3838;
        stroke-linecap: round;
        stroke-linejoin: round;
        stroke-width: 8px;
      }
    </style>
  </defs>
  <path class="cls-1" d="M67.17,114.07c27.7,0,50.16-22.46,50.16-50.16S94.88,13.75,67.17,13.75,17.01,36.21,17.01,63.91s22.46,50.16,50.16,50.16Z"/>
  <path class="cls-1" d="M78.88,99.02v-9.34c.13-1.55-.09-3.11-.63-4.58-.54-1.47-1.4-2.8-2.51-3.92,10.5-1.14,21.54-5.01,21.54-22.79,0-4.55-1.8-8.92-5.02-12.21,1.52-3.98,1.42-8.37-.3-12.28,0,0-3.95-1.14-13.08,4.82-7.66-2.02-15.74-2.02-23.41,0-9.13-5.96-13.08-4.82-13.08-4.82-1.72,3.9-1.83,8.3-.3,12.28-3.24,3.32-5.04,7.73-5.02,12.31,0,17.65,11.04,21.52,21.54,22.79-1.1,1.11-1.95,2.43-2.49,3.87-.54,1.45-.76,2.99-.65,4.53v9.34"/>
  <path class="cls-1" d="M55.47,92.51c-10.03,3.17-18.39,0-23.41-9.77"/>
</svg>