<?xml version="1.0" encoding="UTF-8"?>
<svg id="Layer_1" data-name="Layer 1" xmlns="http://www.w3.org/2000/svg" viewBox="0 0 128 128">
  <defs>
    <style>
      .cls-1, .cls-2 {
        fill: #9e3838;
      }

      .cls-2 {
        fill-rule: evenodd;
      }
    </style>
  </defs>
  <path class="cls-1" d="M88.15,55.64v28.57h-7.27v-28.57h7.27Z"/>
  <path class="cls-1" d="M80.46,47.66c0-2.23,1.64-3.93,4.05-3.93s3.99,1.7,4.05,3.93c0,2.17-1.58,3.87-4.11,3.87s-3.99-1.7-3.99-3.87Z"/>
  <path class="cls-2" d="M70.55,84.21l-3.58-11.21h-12.55l-3.4,11.21h-7.45l12.67-39.54h9.21l12.85,39.54h-7.74ZM58.65,57.81l-3.05,9.74h10.15l-3.11-9.74c-.62-1.95-1.16-4.09-1.65-6.04-.12-.46-.23-.91-.34-1.35h-.12c-.2.78-.4,1.62-.61,2.48-.39,1.65-.81,3.37-1.27,4.91Z"/>
  <path class="cls-2" d="M95.22,16.65c-18.49-2.07-37.6-2.07-56.09,0-10.73,1.2-19.39,9.65-20.66,20.44-2.21,18.9-2.21,38,0,56.9,1.26,10.79,9.92,19.24,20.66,20.44,18.49,2.07,37.6,2.07,56.09,0,10.73-1.2,19.39-9.65,20.66-20.44,2.21-18.9,2.21-38,0-56.9-1.26-10.79-9.92-19.24-20.66-20.44ZM40.02,24.6c17.9-2,36.41-2,54.31,0,7.09.79,12.78,6.39,13.6,13.42,2.14,18.29,2.14,36.76,0,55.04-.82,7.03-6.5,12.63-13.6,13.42-17.9,2-36.41,2-54.31,0-7.09-.79-12.78-6.39-13.6-13.42-2.14-18.29-2.14-36.76,0-55.04.82-7.03,6.5-12.63,13.6-13.42Z"/>
</svg>