<?xml version="1.0" encoding="UTF-8"?>
<svg id="icon" xmlns="http://www.w3.org/2000/svg" viewBox="0 0 128 128">
  <defs>
    <style>
      .cls-1 {
        fill: none;
      }

      .cls-2 {
        fill: #9e3838;
      }
    </style>
  </defs>
  <path class="cls-2" d="M104.8,16H23.2c-4,0-7.2,3.2-7.2,6.8v82c0,3.6,3.2,6.8,7.2,6.8h81.6c4,0,7.2-3.2,7.2-6.8V22.8c0-3.6-3.2-6.8-7.2-6.8ZM44.4,97.6h-14v-45.6h14v45.6ZM37.6,45.6c-4.4,0-8.4-3.6-8.4-8.4s3.6-8.4,8.4-8.4c4.4,0,8.4,3.6,8.4,8.4s-4,8.4-8.4,8.4ZM98,97.2h-14v-22.4c0-5.2,0-12.4-7.6-12.4s-8.4,6-8.4,11.6v22.8h-14v-44.8h13.2v6h.4c2-3.6,6.8-7.6,13.6-7.6,14.4,0,17.2,9.6,17.2,22v24.8h-.4Z"/>
  <rect id="_Transparent_Rectangle_" data-name="&amp;lt;Transparent Rectangle&amp;gt;" class="cls-1" width="128" height="128"/>
</svg>