<?xml version="1.0" encoding="UTF-8"?>
<svg id="Layer_1" data-name="Layer 1" xmlns="http://www.w3.org/2000/svg" viewBox="0 0 128 128">
  <defs>
    <style>
      .cls-1, .cls-2 {
        fill: #9e3838;
      }

      .cls-2 {
        fill-rule: evenodd;
      }
    </style>
  </defs>
  <path class="cls-2" d="M51.68,84.21h-7.16v-39.01c2.58-.47,6.16-.82,11.03-.82,5.28,0,9.15,1.11,11.67,3.23,2.35,1.94,3.87,5.05,3.87,8.74s-1.17,6.86-3.4,8.98c-2.87,2.87-7.39,4.22-12.5,4.22-1.35,0-2.58-.06-3.52-.23v14.9ZM55.85,49.89c-1.99,0-3.4.18-4.17.35v13.38c.88.23,2.05.29,3.52.29,5.4,0,8.68-2.64,8.68-7.27s-3.05-6.75-8.04-6.75Z"/>
  <path class="cls-1" d="M80.32,84.85c-3.46,0-6.57-.88-8.68-2.05l1.41-5.22c1.64,1,4.75,2.05,7.33,2.05,3.17,0,4.58-1.29,4.58-3.17s-1.17-2.93-4.69-4.17c-5.57-1.94-7.92-4.99-7.86-8.33,0-5.05,4.17-8.98,10.79-8.98,3.17,0,5.93.82,7.57,1.7l-1.41,5.1c-1.23-.7-3.52-1.64-6.04-1.64s-3.99,1.23-3.99,2.99,1.35,2.7,4.99,3.99c5.16,1.88,7.57,4.52,7.63,8.74,0,5.16-4.05,8.98-11.62,8.98Z"/>
  <path class="cls-2" d="M95.22,16.65c-18.49-2.07-37.6-2.07-56.09,0-10.73,1.2-19.39,9.65-20.66,20.44-2.21,18.9-2.21,38,0,56.9,1.26,10.79,9.92,19.24,20.66,20.44,18.49,2.07,37.6,2.07,56.09,0,10.73-1.2,19.39-9.65,20.66-20.44,2.21-18.9,2.21-38,0-56.9-1.26-10.79-9.92-19.24-20.66-20.44ZM40.02,24.6c17.9-2,36.41-2,54.31,0,7.09.79,12.78,6.39,13.6,13.42,2.14,18.29,2.14,36.76,0,55.04-.82,7.03-6.5,12.63-13.6,13.42-17.9,2-36.41,2-54.31,0-7.09-.79-12.78-6.39-13.6-13.42-2.14-18.29-2.14-36.76,0-55.04.82-7.03,6.5-12.63,13.6-13.42Z"/>
</svg>