<?xml version="1.0" encoding="UTF-8"?>
<svg id="Layer_1" data-name="Layer 1" xmlns="http://www.w3.org/2000/svg" viewBox="0 0 128 128">
  <defs>
    <style>
      .cls-1 {
        fill: #9e3838;
        fill-rule: evenodd;
      }
    </style>
  </defs>
  <path class="cls-1" d="M40.02,24.6c17.9-2,36.41-2,54.31,0,7.09.79,12.78,6.39,13.6,13.42,2.14,18.29,2.14,36.76,0,55.04-.82,7.03-6.5,12.63-13.6,13.42-17.9,2-36.41,2-54.31,0-7.09-.79-12.78-6.39-13.6-13.42-2.14-18.29-2.14-36.76,0-55.04.82-7.03,6.5-12.63,13.6-13.42ZM95.22,16.65c-18.49-2.07-37.6-2.07-56.09,0-10.73,1.2-19.39,9.65-20.66,20.44-2.21,18.9-2.21,38,0,56.9,1.26,10.79,9.92,19.24,20.66,20.44,18.49,2.07,37.6,2.07,56.09,0,10.73-1.2,19.39-9.65,20.66-20.44,2.21-18.9,2.21-38,0-56.9-1.26-10.79-9.92-19.24-20.66-20.44ZM53.17,84.21h-7.16v-39.01c2.58-.47,6.16-.82,11.03-.82,5.28,0,9.15,1.11,11.67,3.23,2.35,1.94,3.87,5.05,3.87,8.74s-1.17,6.86-3.4,8.98c-2.87,2.87-7.39,4.22-12.5,4.22-1.35,0-2.58-.06-3.52-.23v14.9ZM57.34,49.89c-1.99,0-3.4.18-4.17.35v13.38c.88.23,2.05.29,3.52.29,5.4,0,8.68-2.64,8.68-7.27s-3.05-6.75-8.04-6.75ZM82.67,84.21h-7.22v-19.36c0-3.87-.06-6.63-.23-9.21h6.28l.23,5.46h.23c1.41-4.05,4.75-6.1,7.8-6.1.7,0,1.11.06,1.7.18v6.81c-.59-.12-1.23-.23-2.11-.23-3.46,0-5.81,2.23-6.45,5.46-.12.65-.23,1.41-.23,2.23v14.78Z"/>
</svg>