<?xml version="1.0" encoding="UTF-8"?>
<svg id="Layer_1" data-name="Layer 1" xmlns="http://www.w3.org/2000/svg" viewBox="0 0 948.55 1010.12">
  <defs>
    <style>
      .cls-1 {
        fill: #9e3838;
      }
    </style>
  </defs>
  <path class="cls-1" d="M134.75,13.19s68.02-6.18,129.85,43.28c61.83,49.47,111.3,105.12,117.48,148.4,6.18,43.28,18.55,86.57-30.92,105.12-49.47,18.55-99.08,55.65-89.73,92.75,9.35,37.1,170.12,296.8,207.22,315.35,37.1,18.55,117.48,61.83,142.22,30.92,24.73-30.92,86.57-92.75,123.67-92.75s197.87,179.32,197.87,210.24-12.37,74.2-129.85,117.48c-117.48,43.28-216.42,30.92-340.09-30.92-123.67-61.83-401.92-426.65-426.65-544.14-24.73-117.48,0-333.9,98.93-395.74Z"/>
  <path class="cls-1" d="M668.7,1010.12c-64.72,0-130.42-18.58-206.46-56.61-29.07-14.54-69.01-47.28-115.49-94.68-42.6-43.45-89.32-97.62-135.11-156.66-95.56-123.23-164.77-238.29-176.32-293.14-12.95-61.51-11.77-145.4,3.09-218.94C55.9,103.53,90.02,40.56,134.48,12.77l.1-.06h.12c.68-.07,68.93-5.65,130.21,43.38,69.18,55.35,112.07,109.55,117.67,148.72.6,4.17,1.26,8.4,1.9,12.49,6.14,39.22,11.94,76.26-33.14,93.17-49.57,18.59-98.7,55.36-89.42,92.16,4.49,17.81,44.53,88.52,93.14,164.49,55.17,86.22,97.72,142.49,113.82,150.54,2.19,1.1,4.53,2.28,7.01,3.53,38.99,19.68,111.58,56.3,134.6,27.53,24.26-30.32,86.5-92.94,124.06-92.94,19.9,0,73.43,50.47,113.21,93.69,42.32,45.96,85.15,100.93,85.15,117.05,0,32.59-14.8,75.45-130.18,117.95-46.2,17.02-89.89,25.67-134.02,25.67ZM134.91,13.68c-44.18,27.68-78.1,90.39-95.51,176.61-14.83,73.41-16.02,157.15-3.09,218.54,11.52,54.71,80.65,169.62,176.13,292.74,117.61,151.65,206.39,229.13,250.26,251.06,75.88,37.94,141.45,56.49,206.02,56.49,44.03,0,87.59-8.62,133.67-25.6,114.8-42.29,129.52-84.75,129.52-117.02,0-15.86-42.71-70.55-84.89-116.37-39.65-43.07-92.9-93.36-112.48-93.36-37.19,0-99.12,62.36-123.28,92.56-23.53,29.41-96.58-7.46-135.83-27.26-2.47-1.25-4.81-2.43-7-3.52-24.08-12.04-93.51-118.54-114.21-150.9-48.66-76.04-88.76-146.88-93.27-164.78-4.33-17.18,3.61-35.79,22.95-53.82,16.39-15.28,40.85-29.68,67.09-39.52,44.32-16.62,38.58-53.27,32.5-92.08-.64-4.09-1.3-8.33-1.9-12.5-5.56-38.92-48.31-92.89-117.3-148.08C204.51,9.05,138.12,13.44,134.91,13.68Z"/>
</svg>